  a Japanese manga series written and illustrated by Kouta Hirano. It first premiered in Young King Ours in 1997 and ended in September 2008. The individual chapters are collected and published in tankōbon volumes by Shōnen Gahosha. As of March 2009 all chapters have been released in 10 volumes in Japan. Hellsing chronicles the efforts of the mysterious and secret Hellsing Organization, as it combats vampires, ghouls, and other supernatural foes who threaten England.

Video
ID                               : 0
Format                           : MPEG-4 Visual
Format profile                   : Advanced Simple@L5
Format settings, BVOP            : Yes
Format settings, QPel            : No
Format settings, GMC             : No warppoints
Format settings, Matrix          : Default (H.263)
Muxing mode                      : Packed bitstream
Codec ID                         : XVID
Codec ID/Hint                    : XviD
Duration                         : 56mn 20s
Bit rate                         : 2 599 Kbps
Width                            : 1 280 pixels
Height                           : 720 pixels
Display aspect ratio             : 16:9
Frame rate                       : 23.976 fps
Color space                      : YUV
Chroma subsampling               : 4:2:0
Bit depth                        : 8 bits
Scan type                        : Progressive
Bits/(Pixel*Frame)               : 0.118
Stream size                      : 1.02 GiB (89%)
Writing library                  : XviD 1.2.1 (UTC 2008-12-04)

Audio #1
ID                               : 1
Format                           : AAC
Format/Info                      : Advanced Audio Codec
Format version                   : Version 4
Format profile                   : LC
Format settings, SBR             : No
Codec ID                         : FF
Duration                         : 56mn 20s
Bit rate                         : 109 Kbps
Channel(s)                       : 2 channels
Channel positions                : Front: L R
Sampling rate                    : 44.1 KHz
Stream size                      : 44.1 MiB (4%)
Alignment                        : Split accross interleaves
Interleave, duration             : 23 ms (0.56 video frame)
Interleave, preload duration     : 248 ms
Title                            : Hellsing Ultimate.
